<mxfile host="app.diagrams.net" modified="2023-09-07T11:10:18.217Z" agent="Mozilla/5.0 (Windows NT 10.0; Win64; x64) AppleWebKit/537.36 (KHTML, like Gecko) Chrome/116.0.0.0 Safari/537.36" etag="f3QY-IzYQWiWcHVz1_uf" version="21.2.2" type="github">
  <diagram id="R2lEEEUBdFMjLlhIrx00" name="Page-1">
    <mxGraphModel dx="1290" dy="574" grid="1" gridSize="10" guides="1" tooltips="1" connect="1" arrows="1" fold="1" page="1" pageScale="1" pageWidth="850" pageHeight="1100" math="0" shadow="0" extFonts="Permanent Marker^https://fonts.googleapis.com/css?family=Permanent+Marker">
      <root>
        <mxCell id="0" />
        <mxCell id="1" parent="0" />
        <mxCell id="86xDdWS20HxM01h38wov-3" value="user" style="whiteSpace=wrap;html=1;align=center;" vertex="1" parent="1">
          <mxGeometry x="90" y="200" width="100" height="40" as="geometry" />
        </mxCell>
        <mxCell id="86xDdWS20HxM01h38wov-7" value="user_email" style="ellipse;whiteSpace=wrap;html=1;align=center;" vertex="1" parent="1">
          <mxGeometry x="80" y="260" width="60" height="30" as="geometry" />
        </mxCell>
        <mxCell id="86xDdWS20HxM01h38wov-8" value="user_name" style="ellipse;whiteSpace=wrap;html=1;align=center;" vertex="1" parent="1">
          <mxGeometry x="230" y="260" width="60" height="30" as="geometry" />
        </mxCell>
        <mxCell id="86xDdWS20HxM01h38wov-9" value="user_password" style="ellipse;whiteSpace=wrap;html=1;align=center;" vertex="1" parent="1">
          <mxGeometry x="140" y="260" width="90" height="30" as="geometry" />
        </mxCell>
        <mxCell id="86xDdWS20HxM01h38wov-10" value="user_id" style="ellipse;whiteSpace=wrap;html=1;align=center;fontStyle=4;" vertex="1" parent="1">
          <mxGeometry x="20" y="260" width="60" height="30" as="geometry" />
        </mxCell>
      </root>
    </mxGraphModel>
  </diagram>
</mxfile>
